<svg width="410" height="274" viewBox="0 0 410 274" fill="none" xmlns="http://www.w3.org/2000/svg">
<g clip-path="url(#clip0_88_156)">
<path d="M86 215.052C81.2408 207.463 76.0957 201.353 70.5647 196.722C65.1624 192.092 58.4737 188.94 50.4988 187.268C58.731 178.136 60.9177 160.064 57.0588 133.052C54.8722 117.359 48.3122 102.953 37.3788 89.8329C26.5741 76.7129 15.1906 68.931 3.22824 66.487C6.95843 60.8274 12.6824 56.4541 20.4 53.367C28.2463 50.1513 35.5137 49.1866 42.2024 50.4729C44.7749 50.9874 47.2188 51.9521 49.5341 53.367C51.8494 54.6533 53.9075 56.2612 55.7082 58.1906C57.6377 59.9913 59.4384 62.371 61.1106 65.3294C62.7828 68.2878 64.262 71.1819 65.5482 74.0117C66.8345 76.8416 68.1208 80.3788 69.4071 84.6235C70.6933 88.7396 71.7867 92.5341 72.6871 96.007C73.5875 99.48 74.4879 103.789 75.3882 108.934C76.4173 113.951 77.2533 118.324 77.8965 122.054C78.5396 125.784 79.3114 130.479 80.2118 136.139C82.9129 152.475 85.6141 177.557 88.3153 211.386C92.1741 204.826 95.3255 197.43 97.7694 189.198C100.342 180.451 102.143 169.904 103.172 157.555C104.329 145.207 105.037 133.502 105.294 122.44C105.68 111.249 106.452 99.9945 107.609 88.6753C108.767 77.2274 111.275 66.3584 115.134 56.0682C118.993 45.6494 124.395 36.7741 131.341 29.4423C135.715 24.8117 140.538 20.8886 145.812 17.6729C151.086 14.3286 156.295 11.8847 161.44 10.3411C166.714 8.66899 172.052 7.57565 177.454 7.06115C182.985 6.54663 188.13 6.80388 192.889 7.83291C197.649 8.73331 202.215 10.1482 206.588 12.0776C210.962 13.8784 214.692 16.3223 217.779 19.4094C220.995 22.4964 223.631 25.9694 225.689 29.8282C227.747 33.5584 228.841 37.8674 228.969 42.7553C229.227 47.5145 228.648 52.531 227.233 57.8047C215.271 49.058 203.115 44.1059 190.767 42.9482C178.419 41.6619 167.55 44.1059 158.16 50.28C151.6 54.5247 146.133 60.5702 141.76 68.4165C137.387 76.1341 134.3 84.4306 132.499 93.3059C130.698 102.053 129.283 112.021 128.254 123.212C127.225 134.274 126.582 144.757 126.325 154.661C126.196 164.565 125.617 175.049 124.588 186.111C123.688 197.044 122.337 206.305 120.536 213.894C115.649 234.732 107.159 247.273 95.0682 251.518C89.0228 253.833 82.0126 253.833 74.0377 251.518C66.1914 249.331 60.0816 245.472 55.7082 239.941C68.0565 235.311 78.1537 227.014 86 215.052ZM20.7859 123.791L8.43765 111.442L20.7859 98.9012L33.3271 111.442L20.7859 123.791ZM8.43765 139.033L20.7859 126.685L33.3271 139.033L20.7859 151.574L8.43765 139.033ZM185.142 168.36C188.872 168.231 192.28 167.267 195.368 165.466C198.583 163.665 200.77 161.221 201.928 158.134C201.928 158.134 201.928 158.198 201.928 158.327C202.056 158.327 202.12 158.327 202.12 158.327C203.793 154.597 204.307 150.352 203.664 145.593C203.021 140.834 201.349 136.846 198.648 133.631C194.917 129.9 190.415 127.907 185.142 127.649C179.868 127.907 175.43 129.9 171.829 133.631C169.128 136.846 167.455 140.834 166.812 145.593C166.169 150.352 166.619 154.597 168.163 158.327C168.163 158.327 168.227 158.263 168.356 158.134C169.642 161.221 171.829 163.665 174.916 165.466C178.003 167.267 181.411 168.231 185.142 168.36ZM187.843 192.285C187.071 192.285 186.171 192.285 185.142 192.285C184.241 192.285 183.341 192.285 182.44 192.285C176.524 192.285 171.121 190.998 166.233 188.426C161.346 185.853 157.422 182.252 154.464 177.621C148.933 169.132 145.975 160.064 145.589 150.416C145.203 140.769 147.389 131.444 152.149 122.44C155.107 116.78 159.223 112.407 164.497 109.32C169.899 106.104 175.88 104.432 182.44 104.304C183.341 104.432 184.241 104.496 185.142 104.496C186.042 104.496 186.942 104.432 187.843 104.304C194.531 104.432 200.513 106.104 205.786 109.32C211.189 112.407 215.305 116.78 218.135 122.44C222.894 131.444 225.08 140.769 224.695 150.416C224.437 160.064 221.543 169.132 216.012 177.621C213.954 180.708 211.51 183.345 208.68 185.532C205.851 187.718 202.635 189.391 199.033 190.548C195.56 191.706 191.83 192.285 187.843 192.285ZM231.301 148.873C231.43 143.213 231.944 138.518 232.845 134.788C233.874 131.058 235.546 126.942 237.861 122.44C240.82 116.78 244.936 112.407 250.21 109.32C255.483 106.104 261.464 104.432 268.153 104.304C274.07 104.432 279.086 105.847 283.202 108.548C287.319 111.249 290.02 114.465 291.306 118.195C292.592 121.797 292.914 125.527 292.271 129.386C291.756 133.245 290.213 136.332 287.64 138.647C285.839 134.016 282.173 130.736 276.642 128.807C271.24 126.878 266.224 127.264 261.593 129.965C256.705 133.052 254.133 139.354 253.875 148.873V151.188C253.875 151.317 253.875 151.51 253.875 151.767C253.875 154.725 253.811 158.906 253.682 164.308C253.682 169.711 253.618 174.598 253.49 178.972C253.49 183.345 253.49 187.461 253.49 191.32C238.697 191.32 231.301 183.345 231.301 167.395V148.873ZM316.188 207.72C310.657 206.048 306.284 202.704 303.068 197.687C299.981 192.542 298.437 186.496 298.437 179.551C298.437 171.704 298.437 159.806 298.437 143.856C298.437 127.778 298.437 115.623 298.437 107.391C301.524 112.407 305.576 116.266 310.593 118.967C315.609 121.668 321.14 123.019 327.186 123.019C324.484 124.691 322.491 130.672 321.204 140.962C319.918 151.253 319.982 161.157 321.397 170.675C323.584 185.339 329.115 193.249 337.99 194.407C337.347 199.938 334.775 203.925 330.273 206.369C325.899 208.813 321.204 209.264 316.188 207.72ZM323.327 89.8329L311.557 102.181L299.788 89.8329L311.557 77.2917L323.327 89.8329ZM366.439 102.953C366.31 105.397 366.246 110.027 366.246 116.845C366.246 123.662 366.246 131.058 366.246 139.033C366.374 146.879 366.439 151.574 366.439 153.118C366.31 157.234 366.31 160.771 366.439 163.729C366.567 166.688 366.76 169.775 367.017 172.991C367.403 176.206 367.853 178.972 368.368 181.287C369.011 183.602 369.783 185.853 370.683 188.04C371.584 190.227 372.677 192.092 373.963 193.635C375.378 195.05 376.986 196.336 378.787 197.494C380.716 198.652 382.903 199.488 385.347 200.002C387.791 200.388 390.556 200.581 393.643 200.581C396.73 200.581 400.139 200.26 403.869 199.616C403.998 205.147 402.711 209.842 400.01 213.701C397.438 217.689 394.222 220.39 390.363 221.805C386.504 223.348 382.453 223.991 378.208 223.734C373.963 223.605 370.169 222.641 366.824 220.84C361.937 218.139 357.885 214.666 354.669 210.421C351.453 206.048 349.009 200.838 347.337 194.793C345.794 188.747 344.7 182.638 344.057 176.464C343.543 170.289 343.286 162.893 343.286 154.275C343.286 151.188 343.35 141.991 343.479 126.685C343.607 111.378 343.607 101.667 343.479 97.5506C343.479 86.36 343.736 74.3976 344.25 61.6635C344.893 48.8008 345.537 37.9317 346.18 29.0565C346.823 20.0525 347.144 14.7145 347.144 13.0423C350.875 23.0753 354.926 31.1788 359.3 37.3529C363.673 43.3984 369.719 47.8361 377.436 50.6659C375.764 52.338 374.285 54.5247 372.999 57.2259C371.712 59.7984 370.683 62.371 369.911 64.9435C369.268 67.3874 368.689 70.989 368.175 75.7482C367.789 80.5074 367.468 84.5592 367.21 87.9035C367.082 91.1192 366.824 96.1357 366.439 102.953Z" fill="black"/>
</g>
<defs>
<clipPath id="clip0_88_156">
<rect width="410" height="273.333" fill="white"/>
</clipPath>
</defs>
</svg>
