<svg width="68" height="42" viewBox="0 0 68 42" fill="none" xmlns="http://www.w3.org/2000/svg">
<path d="M14.6 34.672C13.8107 33.4133 12.9573 32.4 12.04 31.632C11.144 30.864 10.0347 30.3413 8.712 30.064C10.0773 28.5493 10.44 25.552 9.8 21.072C9.43733 18.4693 8.34933 16.08 6.536 13.904C4.744 11.728 2.856 10.4373 0.872 10.032C1.49067 9.09333 2.44 8.368 3.72 7.856C5.02133 7.32266 6.22667 7.16267 7.336 7.376C7.76267 7.46133 8.168 7.62133 8.552 7.856C8.936 8.06933 9.27733 8.336 9.576 8.656C9.896 8.95466 10.1947 9.34933 10.472 9.84C10.7493 10.3307 10.9947 10.8107 11.208 11.28C11.4213 11.7493 11.6347 12.336 11.848 13.04C12.0613 13.7227 12.2427 14.352 12.392 14.928C12.5413 15.504 12.6907 16.2187 12.84 17.072C13.0107 17.904 13.1493 18.6293 13.256 19.248C13.3627 19.8667 13.4907 20.6453 13.64 21.584C14.088 24.2933 14.536 28.4533 14.984 34.064C15.624 32.976 16.1467 31.7493 16.552 30.384C16.9787 28.9333 17.2773 27.184 17.448 25.136C17.64 23.088 17.7573 21.1467 17.8 19.312C17.864 17.456 17.992 15.5893 18.184 13.712C18.376 11.8133 18.792 10.0107 19.432 8.304C20.072 6.576 20.968 5.104 22.12 3.888C22.8453 3.12 23.6453 2.46933 24.52 1.936C25.3947 1.38133 26.2587 0.975999 27.112 0.719997C27.9867 0.442664 28.872 0.261331 29.768 0.175999C30.6853 0.0906639 31.5387 0.13333 32.328 0.303997C33.1173 0.453332 33.8747 0.688 34.6 1.008C35.3253 1.30666 35.944 1.712 36.456 2.224C36.9893 2.736 37.4267 3.312 37.768 3.952C38.1093 4.57067 38.2907 5.28533 38.312 6.096C38.3547 6.88533 38.2587 7.71733 38.024 8.592C36.04 7.14133 34.024 6.32 31.976 6.128C29.928 5.91467 28.1253 6.32 26.568 7.344C25.48 8.048 24.5733 9.05067 23.848 10.352C23.1227 11.632 22.6107 13.008 22.312 14.48C22.0133 15.9307 21.7787 17.584 21.608 19.44C21.4373 21.2747 21.3307 23.0133 21.288 24.656C21.2667 26.2987 21.1707 28.0373 21 29.872C20.8507 31.6853 20.6267 33.2213 20.328 34.48C19.5173 37.936 18.1093 40.016 16.104 40.72C15.1013 41.104 13.9387 41.104 12.616 40.72C11.3147 40.3573 10.3013 39.7173 9.576 38.8C11.624 38.032 13.2987 36.656 14.6 34.672ZM3.784 19.536L1.736 17.488L3.784 15.408L5.864 17.488L3.784 19.536ZM1.736 22.064L3.784 20.016L5.864 22.064L3.784 24.144L1.736 22.064ZM31.043 26.928C31.6617 26.9067 32.227 26.7467 32.739 26.448C33.2723 26.1493 33.635 25.744 33.827 25.232C33.827 25.232 33.827 25.2427 33.827 25.264C33.8483 25.264 33.859 25.264 33.859 25.264C34.1363 24.6453 34.2217 23.9413 34.115 23.152C34.0083 22.3627 33.731 21.7013 33.283 21.168C32.6643 20.5493 31.9177 20.2187 31.043 20.176C30.1683 20.2187 29.4323 20.5493 28.835 21.168C28.387 21.7013 28.1097 22.3627 28.003 23.152C27.8963 23.9413 27.971 24.6453 28.227 25.264C28.227 25.264 28.2377 25.2533 28.259 25.232C28.4723 25.744 28.835 26.1493 29.347 26.448C29.859 26.7467 30.4243 26.9067 31.043 26.928ZM31.491 30.896C31.363 30.896 31.2137 30.896 31.043 30.896C30.8937 30.896 30.7443 30.896 30.595 30.896C29.6137 30.896 28.7177 30.6827 27.907 30.256C27.0963 29.8293 26.4457 29.232 25.955 28.464C25.0377 27.056 24.547 25.552 24.483 23.952C24.419 22.352 24.7817 20.8053 25.571 19.312C26.0617 18.3733 26.7443 17.648 27.619 17.136C28.515 16.6027 29.507 16.3253 30.595 16.304C30.7443 16.3253 30.8937 16.336 31.043 16.336C31.1923 16.336 31.3417 16.3253 31.491 16.304C32.6003 16.3253 33.5923 16.6027 34.467 17.136C35.363 17.648 36.0457 18.3733 36.515 19.312C37.3043 20.8053 37.667 22.352 37.603 23.952C37.5603 25.552 37.0803 27.056 36.163 28.464C35.8217 28.976 35.4163 29.4133 34.947 29.776C34.4777 30.1387 33.9443 30.416 33.347 30.608C32.771 30.8 32.1523 30.896 31.491 30.896ZM38.6988 23.696C38.7201 22.7573 38.8054 21.9787 38.9548 21.36C39.1254 20.7413 39.4028 20.0587 39.7868 19.312C40.2774 18.3733 40.9601 17.648 41.8348 17.136C42.7094 16.6027 43.7014 16.3253 44.8108 16.304C45.7921 16.3253 46.6241 16.56 47.3068 17.008C47.9894 17.456 48.4374 17.9893 48.6508 18.608C48.8641 19.2053 48.9174 19.824 48.8108 20.464C48.7254 21.104 48.4694 21.616 48.0428 22C47.7441 21.232 47.1361 20.688 46.2188 20.368C45.3228 20.048 44.4908 20.112 43.7228 20.56C42.9121 21.072 42.4854 22.1173 42.4427 23.696V24.08C42.4427 24.1013 42.4427 24.1333 42.4427 24.176C42.4427 24.6667 42.4321 25.36 42.4108 26.256C42.4108 27.152 42.4001 27.9627 42.3788 28.688C42.3788 29.4133 42.3788 30.096 42.3788 30.736C39.9254 30.736 38.6988 29.4133 38.6988 26.768V23.696ZM52.7775 33.456C51.8602 33.1787 51.1348 32.624 50.6015 31.792C50.0895 30.9387 49.8335 29.936 49.8335 28.784C49.8335 27.4827 49.8335 25.5093 49.8335 22.864C49.8335 20.1973 49.8335 18.1813 49.8335 16.816C50.3455 17.648 51.0175 18.288 51.8495 18.736C52.6815 19.184 53.5988 19.408 54.6015 19.408C54.1535 19.6853 53.8228 20.6773 53.6095 22.384C53.3962 24.0907 53.4068 25.7333 53.6415 27.312C54.0042 29.744 54.9215 31.056 56.3935 31.248C56.2868 32.1653 55.8602 32.8267 55.1135 33.232C54.3882 33.6373 53.6095 33.712 52.7775 33.456ZM53.9615 13.904L52.0095 15.952L50.0575 13.904L52.0095 11.824L53.9615 13.904ZM61.1118 16.08C61.0904 16.4853 61.0798 17.2533 61.0798 18.384C61.0798 19.5147 61.0798 20.7413 61.0798 22.064C61.1011 23.3653 61.1118 24.144 61.1118 24.4C61.0904 25.0827 61.0904 25.6693 61.1118 26.16C61.1331 26.6507 61.1651 27.1627 61.2078 27.696C61.2718 28.2293 61.3464 28.688 61.4318 29.072C61.5384 29.456 61.6664 29.8293 61.8158 30.192C61.9651 30.5547 62.1464 30.864 62.3598 31.12C62.5944 31.3547 62.8611 31.568 63.1598 31.76C63.4798 31.952 63.8424 32.0907 64.2478 32.176C64.6531 32.24 65.1118 32.272 65.6238 32.272C66.1358 32.272 66.7011 32.2187 67.3198 32.112C67.3411 33.0293 67.1278 33.808 66.6798 34.448C66.2531 35.1093 65.7198 35.5573 65.0798 35.792C64.4398 36.048 63.7678 36.1547 63.0638 36.112C62.3598 36.0907 61.7304 35.9307 61.1758 35.632C60.3651 35.184 59.6931 34.608 59.1598 33.904C58.6264 33.1787 58.2211 32.3147 57.9438 31.312C57.6878 30.3093 57.5064 29.296 57.3997 28.272C57.3144 27.248 57.2718 26.0213 57.2718 24.592C57.2718 24.08 57.2824 22.5547 57.3038 20.016C57.3251 17.4773 57.3251 15.8667 57.3038 15.184C57.3038 13.328 57.3464 11.344 57.4318 9.232C57.5384 7.09867 57.6451 5.296 57.7518 3.824C57.8584 2.33067 57.9118 1.44533 57.9118 1.168C58.5304 2.832 59.2024 4.176 59.9278 5.2C60.6531 6.20267 61.6558 6.93867 62.9358 7.408C62.6584 7.68533 62.4131 8.048 62.1998 8.496C61.9864 8.92267 61.8158 9.34933 61.6878 9.776C61.5811 10.1813 61.4851 10.7787 61.3998 11.568C61.3358 12.3573 61.2824 13.0293 61.2398 13.584C61.2184 14.1173 61.1758 14.9493 61.1118 16.08Z" fill="white"/>
</svg>
