<svg width="32" height="32" viewBox="0 0 32 32" fill="none" xmlns="http://www.w3.org/2000/svg">
<path fill-rule="evenodd" clip-rule="evenodd" d="M3 5.17218C3 4.59609 3.22885 4.04358 3.63622 3.63622C4.04358 3.22886 4.59608 3 5.17218 3H26.8255C27.111 2.99954 27.3937 3.05539 27.6576 3.16435C27.9215 3.27332 28.1613 3.43327 28.3633 3.63504C28.5653 3.8368 28.7255 4.07643 28.8347 4.3402C28.944 4.60396 29.0002 4.88669 29 5.17218V26.8255C29.0003 27.111 28.9443 27.3938 28.8352 27.6577C28.7261 27.9216 28.5661 28.1614 28.3642 28.3634C28.1623 28.5653 27.9226 28.7255 27.6588 28.8348C27.395 28.944 27.1122 29.0002 26.8266 29H5.17218C4.88683 29 4.60427 28.9438 4.34065 28.8345C4.07703 28.7253 3.83752 28.5652 3.6358 28.3634C3.43408 28.1615 3.2741 27.9219 3.16501 27.6583C3.05592 27.3946 2.99985 27.112 3 26.8266V5.17218ZM13.2913 12.9131H16.8119V14.6811C17.3201 13.6647 18.6201 12.75 20.5736 12.75C24.3188 12.75 25.2064 14.7745 25.2064 18.4889V25.3695H21.4163V19.3351C21.4163 17.2196 20.9081 16.026 19.6175 16.026C17.8271 16.026 17.0825 17.313 17.0825 19.3351V25.3695H13.2913V12.9131ZM6.79127 25.2075H10.5825V12.75H6.79127V25.2064V25.2075ZM11.125 8.68691C11.1321 9.01152 11.0744 9.3343 10.9551 9.63628C10.8358 9.93827 10.6574 10.2134 10.4304 10.4455C10.2033 10.6776 9.93219 10.862 9.6329 10.9879C9.33361 11.1138 9.01219 11.1787 8.6875 11.1787C8.36281 11.1787 8.04139 11.1138 7.7421 10.9879C7.44281 10.862 7.17169 10.6776 6.94464 10.4455C6.71759 10.2134 6.53918 9.93827 6.4199 9.63628C6.30061 9.3343 6.24285 9.01152 6.25 8.68691C6.26403 8.04974 6.527 7.44339 6.98259 6.99772C7.43818 6.55205 8.05017 6.3025 8.6875 6.3025C9.32483 6.3025 9.93682 6.55205 10.3924 6.99772C10.848 7.44339 11.111 8.04974 11.125 8.68691Z" fill="#3182CE"/>
</svg>
