<svg width="32" height="32" viewBox="0 0 32 32" fill="none" xmlns="http://www.w3.org/2000/svg">
<path d="M16.8042 4C11.4603 4 9.89742 4.00551 9.59362 4.03071C8.49696 4.12187 7.81456 4.29454 7.07112 4.66469C6.49818 4.94919 6.04632 5.27897 5.60038 5.74126C4.78822 6.58433 4.29601 7.62152 4.11783 8.85442C4.0312 9.45296 4.00599 9.57503 4.00088 12.6323C3.99891 13.6514 4.00088 14.9925 4.00088 16.7915C4.00088 22.131 4.00678 23.6923 4.03238 23.9956C4.12098 25.0627 4.28833 25.7341 4.64272 26.4684C5.32001 27.8742 6.61355 28.9295 8.13745 29.3233C8.66511 29.4591 9.24789 29.534 9.99606 29.5694C10.313 29.5832 13.5439 29.593 16.7768 29.593C20.0097 29.593 23.2425 29.5891 23.5517 29.5733C24.418 29.5326 24.921 29.465 25.4772 29.3213C26.2328 29.1275 26.937 28.7712 27.5406 28.2771C28.1442 27.7829 28.6327 27.163 28.9719 26.4606C29.3194 25.7439 29.4957 25.0469 29.5754 24.0355C29.5927 23.815 29.6 20.2992 29.6 16.7881C29.6 13.2765 29.5921 9.76719 29.5748 9.54667C29.4941 8.51893 29.3179 7.82786 28.9591 7.09741C28.6648 6.49947 28.338 6.05293 27.8635 5.59635C27.0169 4.78754 25.9812 4.29533 24.747 4.11734C24.149 4.03091 24.0299 4.00532 20.9703 4H16.8042Z" fill="url(#paint0_radial_42_965)"/>
<path d="M16.8042 4C11.4603 4 9.89742 4.00551 9.59362 4.03071C8.49696 4.12187 7.81456 4.29454 7.07112 4.66469C6.49818 4.94919 6.04632 5.27897 5.60038 5.74126C4.78822 6.58433 4.29601 7.62152 4.11783 8.85442C4.0312 9.45296 4.00599 9.57503 4.00088 12.6323C3.99891 13.6514 4.00088 14.9925 4.00088 16.7915C4.00088 22.131 4.00678 23.6923 4.03238 23.9956C4.12098 25.0627 4.28833 25.7341 4.64272 26.4684C5.32001 27.8742 6.61355 28.9295 8.13745 29.3233C8.66511 29.4591 9.24789 29.534 9.99606 29.5694C10.313 29.5832 13.5439 29.593 16.7768 29.593C20.0097 29.593 23.2425 29.5891 23.5517 29.5733C24.418 29.5326 24.921 29.465 25.4772 29.3213C26.2328 29.1275 26.937 28.7712 27.5406 28.2771C28.1442 27.7829 28.6327 27.163 28.9719 26.4606C29.3194 25.7439 29.4957 25.0469 29.5754 24.0355C29.5927 23.815 29.6 20.2992 29.6 16.7881C29.6 13.2765 29.5921 9.76719 29.5748 9.54667C29.4941 8.51893 29.3179 7.82786 28.9591 7.09741C28.6648 6.49947 28.338 6.05293 27.8635 5.59635C27.0169 4.78754 25.9812 4.29533 24.747 4.11734C24.149 4.03091 24.0299 4.00532 20.9703 4H16.8042Z" fill="url(#paint1_radial_42_965)"/>
<path d="M16.7978 7.34708C14.2312 7.34708 13.9091 7.3583 12.901 7.40417C11.8949 7.45024 11.2082 7.60953 10.6073 7.84323C9.98574 8.08461 9.45848 8.4075 8.93319 8.93299C8.4075 9.45829 8.08461 9.98555 7.84244 10.6069C7.60814 11.208 7.44867 11.8949 7.40338 12.9006C7.35849 13.9087 7.34668 14.231 7.34668 16.7976C7.34668 19.3642 7.3581 19.6853 7.40378 20.6934C7.45005 21.6995 7.60933 22.3862 7.84283 22.9871C8.08441 23.6087 8.4073 24.1359 8.93279 24.6612C9.45789 25.1869 9.98515 25.5106 10.6063 25.752C11.2076 25.9857 11.8946 26.145 12.9004 26.191C13.9085 26.2369 14.2304 26.2481 16.7968 26.2481C19.3636 26.2481 19.6847 26.2369 20.6928 26.191C21.6989 26.145 22.3864 25.9857 22.9877 25.752C23.6091 25.5106 24.1355 25.1869 24.6606 24.6612C25.1863 24.1359 25.5092 23.6087 25.7514 22.9873C25.9837 22.3862 26.1432 21.6993 26.1904 20.6936C26.2357 19.6855 26.2475 19.3642 26.2475 16.7976C26.2475 14.231 26.2357 13.9089 26.1904 12.9008C26.1432 11.8948 25.9837 11.208 25.7514 10.6071C25.5092 9.98555 25.1863 9.45829 24.6606 8.93299C24.135 8.40731 23.6093 8.08441 22.9871 7.84323C22.3846 7.60953 21.6975 7.45024 20.6914 7.40417C19.6834 7.3583 19.3624 7.34708 16.795 7.34708H16.7978ZM15.95 9.05014C16.2016 9.04975 16.4824 9.05014 16.7978 9.05014C19.3211 9.05014 19.6202 9.0592 20.6166 9.10448C21.538 9.14662 22.0381 9.30058 22.3713 9.42993C22.8123 9.60123 23.1267 9.80599 23.4573 10.1368C23.788 10.4675 23.9928 10.7825 24.1645 11.2236C24.2938 11.5563 24.448 12.0564 24.4899 12.9778C24.5352 13.9741 24.5451 14.2733 24.5451 16.7954C24.5451 19.3176 24.5352 19.6168 24.4899 20.6131C24.4478 21.5345 24.2938 22.0346 24.1645 22.3673C23.9932 22.8083 23.788 23.1224 23.4573 23.4529C23.1265 23.7837 22.8125 23.9885 22.3713 24.1598C22.0385 24.2897 21.538 24.4433 20.6166 24.4854C19.6204 24.5307 19.3211 24.5405 16.7978 24.5405C14.2743 24.5405 13.9752 24.5307 12.979 24.4854C12.0576 24.4429 11.5575 24.2889 11.2242 24.1596C10.7831 23.9883 10.4681 23.7835 10.1373 23.4528C9.80657 23.122 9.60181 22.8078 9.43013 22.3665C9.30077 22.0338 9.14661 21.5337 9.10468 20.6123C9.05939 19.616 9.05033 19.3168 9.05033 16.7931C9.05033 14.2694 9.05939 13.9717 9.10468 12.9755C9.14681 12.054 9.30077 11.5539 9.43013 11.2208C9.60142 10.7798 9.80657 10.4648 10.1373 10.134C10.4681 9.80323 10.7831 9.59847 11.2242 9.42678C11.5573 9.29684 12.0576 9.14327 12.979 9.10094C13.8508 9.06156 14.1887 9.04975 15.95 9.04778V9.05014ZM21.8424 10.6193C21.6181 10.6193 21.3988 10.6858 21.2123 10.8105C21.0258 10.9351 20.8805 11.1122 20.7946 11.3195C20.7088 11.5267 20.6864 11.7548 20.7302 11.9748C20.774 12.1948 20.882 12.3968 21.0407 12.5554C21.1993 12.714 21.4014 12.822 21.6214 12.8657C21.8414 12.9094 22.0695 12.8869 22.2767 12.801C22.4839 12.7151 22.661 12.5697 22.7855 12.3832C22.9101 12.1966 22.9766 11.9773 22.9765 11.753C22.9765 11.1269 22.4685 10.6189 21.8424 10.6189V10.6193ZM16.7978 11.9444C14.1176 11.9444 11.9446 14.1174 11.9446 16.7976C11.9446 19.4778 14.1176 21.6499 16.7978 21.6499C19.478 21.6499 21.6505 19.4778 21.6505 16.7976C21.6505 14.1174 19.4778 11.9444 16.7976 11.9444H16.7978ZM16.7978 13.6474C18.5375 13.6474 19.948 15.0577 19.948 16.7976C19.948 18.5373 18.5375 19.9478 16.7978 19.9478C15.0579 19.9478 13.6476 18.5373 13.6476 16.7976C13.6476 15.0577 15.0579 13.6474 16.7978 13.6474Z" fill="white"/>
<defs>
<radialGradient id="paint0_radial_42_965" cx="0" cy="0" r="1" gradientUnits="userSpaceOnUse" gradientTransform="translate(10.8 31.5642) rotate(-90) scale(25.3646 23.5975)">
<stop stop-color="#FFDD55"/>
<stop offset="0.1" stop-color="#FFDD55"/>
<stop offset="0.5" stop-color="#FF543E"/>
<stop offset="1" stop-color="#C837AB"/>
</radialGradient>
<radialGradient id="paint1_radial_42_965" cx="0" cy="0" r="1" gradientUnits="userSpaceOnUse" gradientTransform="translate(-0.288135 5.84368) rotate(78.6776) scale(11.3382 46.7483)">
<stop stop-color="#3771C8"/>
<stop offset="0.128" stop-color="#3771C8"/>
<stop offset="1" stop-color="#6600FF" stop-opacity="0"/>
</radialGradient>
</defs>
</svg>
