<svg width="32" height="32" viewBox="0 0 32 32" fill="none" xmlns="http://www.w3.org/2000/svg">
<path d="M26.8796 9.12C23.0396 3.2 15.1996 1.44 9.11965 5.12C3.19965 8.8 1.27965 16.8 5.11965 22.72L5.43965 23.2L4.15965 28L8.95965 26.72L9.43965 27.04C11.5196 28.16 13.7596 28.8 15.9996 28.8C18.3996 28.8 20.7996 28.16 22.8796 26.88C28.7996 23.04 30.5596 15.2 26.8796 9.12ZM23.5196 21.44C22.8796 22.4 22.0796 23.04 20.9596 23.2C20.3196 23.2 19.5196 23.52 16.3196 22.24C13.5996 20.96 11.3596 18.88 9.75965 16.48C8.79965 15.36 8.31965 13.92 8.15965 12.48C8.15965 11.2 8.63965 10.08 9.43965 9.28C9.75965 8.96 10.0796 8.8 10.3996 8.8H11.1996C11.5196 8.8 11.8396 8.8 11.9996 9.44C12.3196 10.24 13.1196 12.16 13.1196 12.32C13.2796 12.48 13.2796 12.8 13.1196 12.96C13.2796 13.28 13.1196 13.6 12.9596 13.76C12.7996 13.92 12.6396 14.24 12.4796 14.4C12.1596 14.56 11.9996 14.88 12.1596 15.2C12.7996 16.16 13.5996 17.12 14.3996 17.92C15.3596 18.72 16.3196 19.36 17.4396 19.84C17.7596 20 18.0796 20 18.2396 19.68C18.3996 19.36 19.1996 18.56 19.5196 18.24C19.8396 17.92 19.9996 17.92 20.3196 18.08L22.8796 19.36C23.1996 19.52 23.5196 19.68 23.6796 19.84C23.8396 20.32 23.8396 20.96 23.5196 21.44Z" fill="#48BB78"/>
</svg>
