<svg width="48" height="48" viewBox="0 0 48 48" fill="none" xmlns="http://www.w3.org/2000/svg">
<path fill-rule="evenodd" clip-rule="evenodd" d="M10.4099 0.0489508C9.48703 0.291482 8.67626 0.957116 8.26036 1.81383C8.05397 2.23894 8.01133 2.49778 7.9774 3.53287L7.93746 4.75143L5.4645 4.78406L2.99165 4.81669L2.23563 5.19055C1.32506 5.64077 0.757421 6.22073 0.316802 7.15091L0 7.81955V24.7909V41.7623L0.373856 42.5186C0.824085 43.4297 1.40364 43.9971 2.33422 44.4379L3.00286 44.7547L14.8417 44.7817L26.6805 44.8088L26.9282 44.561C27.2553 44.234 27.2561 43.7748 26.9301 43.449L26.6845 43.2032H15.1555C6.39639 43.2032 3.52766 43.174 3.21466 43.0815C2.66484 42.9191 1.83565 42.0899 1.67319 41.5401C1.5805 41.2262 1.55148 38.1335 1.55148 28.5527V15.9773H23.9728H46.3942V22.9384V29.8997L46.6399 30.1453C46.9658 30.4713 47.425 30.4704 47.7522 30.1432L48 29.8954L47.9728 18.8575L47.9456 7.81955L47.6288 7.15091C47.1882 6.22073 46.6206 5.64077 45.71 5.19055L44.954 4.81669L42.4828 4.78406L40.0117 4.75143L39.9703 3.53287C39.9309 2.37787 39.9111 2.28128 39.5901 1.6812C39.2232 0.995252 38.7988 0.588665 38.0894 0.243136C37.4209 -0.0823742 36.128 -0.071664 35.4337 0.265057C34.7957 0.574551 34.1947 1.17552 33.8848 1.81383C33.6781 2.23954 33.6358 2.49758 33.6016 3.54047L33.5614 4.76664H30.3807H27.2L27.1583 3.54047C27.1187 2.37697 27.0993 2.28198 26.7779 1.6812C26.411 0.995252 25.9866 0.588665 25.2772 0.243136C24.6087 -0.0823742 23.3158 -0.071664 22.6215 0.265057C21.9835 0.574551 21.3825 1.17552 21.0726 1.81383C20.8659 2.23954 20.8236 2.49758 20.7894 3.54047L20.7492 4.76664H17.5685H14.3878L14.3461 3.54047C14.3065 2.37697 14.2871 2.28198 13.9657 1.6812C13.4087 0.639813 12.5372 0.0779783 11.3721 0.00911276C11.0081 -0.0124077 10.5751 0.0055094 10.4099 0.0489508ZM12.0378 1.83105C12.1816 1.93845 12.3922 2.15075 12.5057 2.3028C12.7034 2.56755 12.7121 2.70548 12.7121 5.5674C12.7121 8.42933 12.7034 8.56726 12.5057 8.83201C12.1135 9.35721 11.7936 9.52117 11.1606 9.52117C10.5277 9.52117 10.2079 9.35741 9.81555 8.83221C9.62086 8.57176 9.60745 8.4013 9.57852 5.83556C9.5617 4.33934 9.57482 2.97003 9.60755 2.79266C9.68142 2.39308 10.1004 1.8825 10.505 1.69882C10.9102 1.51505 11.7064 1.58371 12.0378 1.83105ZM24.85 1.83105C24.9938 1.93845 25.2044 2.15075 25.3179 2.3028C25.5156 2.56755 25.5243 2.70548 25.5243 5.5674C25.5243 8.42933 25.5156 8.56726 25.3179 8.83201C24.9257 9.35721 24.6058 9.52117 23.9728 9.52117C23.3399 9.52117 23.0201 9.35741 22.6277 8.83221C22.4331 8.57176 22.4196 8.4013 22.3907 5.83556C22.3739 4.33934 22.387 2.97003 22.4197 2.79266C22.4936 2.39308 22.9126 1.8825 23.3172 1.69882C23.7224 1.51505 24.5186 1.58371 24.85 1.83105ZM37.6622 1.83105C37.806 1.93845 38.0166 2.15075 38.1301 2.3028C38.3278 2.56755 38.3365 2.70548 38.3365 5.5674C38.3365 8.42933 38.3278 8.56726 38.1301 8.83201C37.7379 9.35721 37.418 9.52117 36.785 9.52117C36.1521 9.52117 35.8323 9.35741 35.4399 8.83221C35.2453 8.57176 35.2318 8.4013 35.2029 5.83556C35.1861 4.33934 35.1992 2.97003 35.2319 2.79266C35.3058 2.39308 35.7248 1.8825 36.1294 1.69882C36.5346 1.51505 37.3308 1.58371 37.6622 1.83105ZM7.9783 7.59433C8.01463 8.58598 8.06488 8.90728 8.24135 9.27403C8.58047 9.9791 8.98836 10.4064 9.67671 10.7776C10.2554 11.0896 10.383 11.119 11.1606 11.119C11.9377 11.119 12.0662 11.0895 12.6421 10.7789C13.3461 10.3992 13.6505 10.0834 14.0372 9.33169C14.2681 8.88256 14.3054 8.67156 14.344 7.59433L14.3878 6.36817H17.5667H20.7457L20.7905 7.59433C20.8268 8.58598 20.8771 8.90728 21.0535 9.27403C21.3927 9.9791 21.8006 10.4064 22.4889 10.7776C23.0692 11.0905 23.1931 11.1188 23.9728 11.1168C24.6958 11.1149 24.9004 11.0746 25.3348 10.8489C26.0903 10.4564 26.4038 10.153 26.7792 9.4512C27.0991 8.85323 27.1187 8.75684 27.1583 7.59433L27.2 6.36817H30.3789H33.5578L33.6027 7.59433C33.639 8.58598 33.6893 8.90728 33.8657 9.27403C34.2049 9.9791 34.6128 10.4064 35.3011 10.7776C35.8798 11.0896 36.0074 11.119 36.785 11.119C37.5621 11.119 37.6906 11.0895 38.2665 10.7789C38.9705 10.3992 39.2749 10.0834 39.6616 9.33169C39.8925 8.88256 39.9298 8.67156 39.9684 7.59433L40.0122 6.36817H42.1656C43.5638 6.36817 44.4635 6.41091 44.731 6.48988C45.2808 6.65234 46.11 7.48153 46.2725 8.03135C46.356 8.31422 46.3942 9.37323 46.3942 11.4096V14.3758H23.9728H1.55148V11.4096C1.55148 9.37323 1.58961 8.31422 1.67319 8.03135C1.82384 7.52146 2.66173 6.65384 3.153 6.49899C3.3596 6.43393 4.4123 6.38438 5.71834 6.37838L7.93345 6.36817L7.9783 7.59433ZM7.30195 20.119C6.89717 20.2992 6.47887 20.8094 6.4026 21.2159C6.36876 21.3964 6.35565 22.2252 6.37357 23.0578C6.409 24.7057 6.45555 24.8525 7.09526 25.33C7.3547 25.5237 7.50595 25.5364 9.5591 25.5364C11.6123 25.5364 11.7635 25.5237 12.0229 25.33C12.6878 24.8336 12.7121 24.7438 12.7121 22.7838C12.7121 21.135 12.6961 20.9754 12.5057 20.7203C12.0034 20.0476 11.9477 20.0335 9.67721 20.0072C8.10762 19.9889 7.53347 20.016 7.30195 20.119ZM16.9111 20.119C16.5063 20.2992 16.088 20.8094 16.0117 21.2159C15.9779 21.3964 15.9648 22.2252 15.9827 23.0578C16.0182 24.7057 16.0647 24.8525 16.7044 25.33C16.9639 25.5237 17.1151 25.5364 19.1683 25.5364C21.2214 25.5364 21.3727 25.5237 21.6321 25.33C22.2969 24.8336 22.3213 24.7438 22.3213 22.7838C22.3213 21.135 22.3052 20.9754 22.1149 20.7203C21.6126 20.0476 21.5568 20.0335 19.2864 20.0072C17.7168 19.9889 17.1426 20.016 16.9111 20.119ZM26.5203 20.119C26.1155 20.2992 25.6972 20.8094 25.6209 21.2159C25.5871 21.3964 25.5739 22.2252 25.5919 23.0578C25.6273 24.7057 25.6738 24.8525 26.3136 25.33C26.573 25.5237 26.7242 25.5364 28.7774 25.5364C30.8306 25.5364 30.9818 25.5237 31.2412 25.33C31.9061 24.8336 31.9304 24.7438 31.9304 22.7838C31.9304 21.135 31.9144 20.9754 31.724 20.7203C31.2217 20.0476 31.166 20.0335 28.8955 20.0072C27.3259 19.9889 26.7518 20.016 26.5203 20.119ZM36.1294 20.119C35.7246 20.2992 35.3063 20.8094 35.23 21.2159C35.1962 21.3964 35.1831 22.2252 35.201 23.0578C35.2364 24.7057 35.283 24.8525 35.9227 25.33C36.1822 25.5237 36.3334 25.5364 38.3865 25.5364C40.4397 25.5364 40.5909 25.5237 40.8504 25.33C41.5152 24.8336 41.5396 24.7438 41.5396 22.7838C41.5396 21.135 41.5235 20.9754 41.3332 20.7203C40.8309 20.0476 40.7751 20.0335 38.5047 20.0072C36.9351 19.9889 36.3609 20.016 36.1294 20.119ZM11.1606 22.7838V23.9849H9.5591H7.95758V22.7838V21.5827H9.5591H11.1606V22.7838ZM20.7698 22.7838V23.9849H19.1683H17.5667V22.7838V21.5827H19.1683H20.7698V22.7838ZM30.3789 22.7838V23.9849H28.7774H27.1759V22.7838V21.5827H28.7774H30.3789V22.7838ZM39.9881 22.7838V23.9849H38.3865H36.785V22.7838V21.5827H38.3865H39.9881V22.7838ZM7.30195 27.3258C6.89717 27.5061 6.47887 28.0163 6.4026 28.4228C6.36876 28.6032 6.35565 29.432 6.37357 30.2646C6.409 31.9126 6.45555 32.0593 7.09526 32.5369C7.3547 32.7306 7.50595 32.7433 9.5591 32.7433C11.6123 32.7433 11.7635 32.7306 12.0229 32.5369C12.6878 32.0405 12.7121 31.9506 12.7121 29.9907C12.7121 28.3419 12.6961 28.1822 12.5057 27.9272C12.0034 27.2545 11.9477 27.2403 9.67721 27.214C8.10762 27.1958 7.53347 27.2228 7.30195 27.3258ZM16.9111 27.3258C16.5063 27.5061 16.088 28.0163 16.0117 28.4228C15.9779 28.6032 15.9648 29.432 15.9827 30.2646C16.0182 31.9126 16.0647 32.0593 16.7044 32.5369C16.9639 32.7306 17.1151 32.7433 19.1683 32.7433C21.2214 32.7433 21.3727 32.7306 21.6321 32.5369C22.2969 32.0405 22.3213 31.9506 22.3213 29.9907C22.3213 28.3419 22.3052 28.1822 22.1149 27.9272C21.6126 27.2545 21.5568 27.2403 19.2864 27.214C17.7168 27.1958 17.1426 27.2228 16.9111 27.3258ZM26.5203 27.3288C26.117 27.5045 25.6974 28.0148 25.6209 28.4228C25.5871 28.6032 25.5739 29.432 25.5919 30.2646C25.6207 31.6077 25.6477 31.8096 25.8308 32.0545C26.1594 32.494 26.5183 32.7114 27.0067 32.7664C27.3987 32.8106 27.4963 32.7823 27.7188 32.5598C28.0561 32.2225 28.0611 31.7676 27.7309 31.4375C27.5958 31.3024 27.4156 31.1918 27.3305 31.1918C27.1996 31.1918 27.1759 31.0073 27.1759 29.9907V28.7895H28.932C30.6633 28.7895 30.6918 28.786 30.934 28.5438C31.0889 28.3889 31.1797 28.1837 31.1797 27.9888C31.1797 27.7938 31.0889 27.5886 30.934 27.4337C30.6898 27.1895 30.6765 27.188 28.7569 27.1919C27.3786 27.1947 26.7382 27.2339 26.5203 27.3288ZM35.8662 27.3378C32.1603 27.9615 28.9814 30.6455 27.7647 34.178C27.0197 36.3412 27.0051 38.7803 27.7244 40.8952C28.9097 44.3801 31.8488 47.0001 35.4337 47.7674C38.24 48.3681 41.3 47.7302 43.6416 46.0566C44.3486 45.5511 45.555 44.3484 46.0423 43.6629C46.9268 42.4189 47.6583 40.5835 47.8889 39.0301C48.2705 36.4591 47.5223 33.5129 45.9605 31.4353C45.4274 30.7263 44.1356 29.4674 43.4743 29.0123C41.3338 27.5396 38.4451 26.9039 35.8662 27.3378ZM11.1606 29.9907V31.1918H9.5591H7.95758V29.9907V28.7895H9.5591H11.1606V29.9907ZM20.7698 29.9907V31.1918H19.1683H17.5667V29.9907V28.7895H19.1683H20.7698V29.9907ZM39.7378 29.0688C42.9953 29.9608 45.2811 32.2719 46.1525 35.5544C46.4267 36.5872 46.4114 38.6798 46.1218 39.75C45.256 42.9491 42.937 45.2681 39.7378 46.1339C38.6677 46.4235 36.5751 46.4388 35.5422 46.1647C31.6761 45.1383 29.0594 42.0069 28.8065 38.1042C28.6457 35.6223 29.5743 33.2057 31.3839 31.396C32.7025 30.0773 34.2021 29.2818 36.0343 28.9288C36.9734 28.7479 38.821 28.8177 39.7378 29.0688ZM42.4905 34.0633C42.4079 34.0926 40.9104 35.5412 39.1626 37.2826L35.985 40.4488L34.5082 38.9753C32.8024 37.2734 32.5977 37.1654 32.0728 37.6903C31.5294 38.2337 31.6225 38.3898 33.7633 40.5257C35.4692 42.2275 35.6764 42.4025 35.9863 42.4025C36.3017 42.4025 36.5965 42.1347 39.8167 38.9242C41.7354 37.011 43.3698 35.3242 43.4485 35.1756C43.6557 34.7839 43.6273 34.6155 43.2989 34.287C43.0179 34.006 42.8131 33.9493 42.4905 34.0633ZM7.30195 34.5327C6.89717 34.713 6.47887 35.2231 6.4026 35.6296C6.36876 35.8101 6.35565 36.6389 6.37357 37.4715C6.409 39.1194 6.45555 39.2662 7.09526 39.7437C7.3547 39.9374 7.50595 39.9501 9.5591 39.9501C11.6123 39.9501 11.7635 39.9374 12.0229 39.7437C12.6878 39.2474 12.7121 39.1575 12.7121 37.1975C12.7121 35.5487 12.6961 35.3891 12.5057 35.1341C12.0034 34.4613 11.9477 34.4472 9.67721 34.4209C8.10762 34.4027 7.53347 34.4297 7.30195 34.5327ZM16.9111 34.5327C16.5063 34.713 16.088 35.2231 16.0117 35.6296C15.9779 35.8101 15.9648 36.6389 15.9827 37.4715C16.0182 39.1194 16.0647 39.2662 16.7044 39.7437C16.9639 39.9374 17.1151 39.9501 19.1683 39.9501C21.2214 39.9501 21.3727 39.9374 21.6321 39.7437C22.2969 39.2474 22.3213 39.1575 22.3213 37.1975C22.3213 35.5487 22.3052 35.3891 22.1149 35.1341C21.6126 34.4613 21.5568 34.4472 19.2864 34.4209C17.7168 34.4027 17.1426 34.4297 16.9111 34.5327ZM11.1606 37.1975V38.3987H9.5591H7.95758V37.1975V35.9964H9.5591H11.1606V37.1975ZM20.7698 37.1975V38.3987H19.1683H17.5667V37.1975V35.9964H19.1683H20.7698V37.1975Z" fill="#2D3748"/>
</svg>
