<svg width="48" height="48" viewBox="0 0 48 48" fill="none" xmlns="http://www.w3.org/2000/svg">
<path fill-rule="evenodd" clip-rule="evenodd" d="M1.89752 4.65513C0.95476 4.98167 0.285423 5.72657 0.0817406 6.67609C0.00833976 7.01841 -0.013061 12.1447 0.00730727 24.4746L0.0360293 41.7923L0.233705 42.2195C0.522615 42.8439 0.963489 43.2987 1.56769 43.5954L2.10101 43.8573H24.018H45.935L46.4683 43.5954C47.0725 43.2987 47.5134 42.8439 47.8023 42.2195L48 41.7923V24.193V6.59368L47.7381 6.06035C47.4414 5.45615 46.9867 5.01528 46.3622 4.72637L45.935 4.52869L24.1588 4.50785C3.44588 4.48805 2.35895 4.49528 1.89752 4.65513ZM45.6561 6.47119C46.1216 6.68332 46.1697 6.92698 46.1697 9.07635V11.0522H24.018H1.86636L1.86964 9.05758C1.87321 6.92783 1.90953 6.73194 2.346 6.49005C2.65969 6.31612 45.2752 6.29763 45.6561 6.47119ZM36.7937 7.898C35.98 8.34901 36.3204 9.64422 37.2527 9.64422C37.7283 9.64422 38.1913 9.1857 38.1913 8.7147C38.1913 8.00998 37.4125 7.55493 36.7937 7.898ZM40.0789 7.898C39.2652 8.34901 39.6056 9.64422 40.5379 9.64422C41.0135 9.64422 41.4765 9.1857 41.4765 8.7147C41.4765 8.00998 40.6977 7.55493 40.0789 7.898ZM43.3641 7.898C42.5504 8.34901 42.8909 9.64422 43.8231 9.64422C44.2987 9.64422 44.7617 9.1857 44.7617 8.7147C44.7617 8.00998 43.9829 7.55493 43.3641 7.898ZM46.1697 27.1074C46.1697 42.5228 46.1993 41.6673 45.6561 41.9148C45.2988 42.0775 2.73722 42.0775 2.37998 41.9148C1.8367 41.6673 1.86636 42.5228 1.86636 27.1074V12.9294H24.018H46.1697V27.1074ZM4.22326 17.2843C3.59419 17.6329 3.61484 18.6257 4.25723 18.9184C4.4444 19.0037 7.7403 19.0305 18.0199 19.0305C29.5348 19.0305 31.5746 19.0107 31.795 18.8968C32.4197 18.5737 32.4197 17.6101 31.795 17.287C31.4226 17.0944 4.57064 17.0917 4.22326 17.2843ZM40.3806 17.2827C40.165 17.3532 39.8482 17.499 39.6766 17.6064C39.505 17.714 36.1864 20.9823 32.302 24.8694L25.2393 31.9367L24.441 34.3281C24.0019 35.6434 23.6426 36.8197 23.6426 36.9422C23.6426 37.2323 24.2119 37.8031 24.5014 37.8031C24.6227 37.8031 25.8 37.4438 27.1176 37.0046L29.5132 36.206L36.7035 29.0028C44.7306 20.9612 44.2469 21.5286 44.244 20.1569C44.2414 18.9408 43.6137 17.9539 42.526 17.456C41.9035 17.171 40.956 17.0945 40.3806 17.2827ZM41.7553 19.1506C42.0715 19.3106 42.4152 19.8443 42.4152 20.1755C42.4152 20.6007 42.2144 20.8879 41.248 21.8452L40.3489 22.7356L39.5296 21.9161L38.7102 21.0968L39.5536 20.2413C40.0175 19.7707 40.5238 19.306 40.6787 19.2085C41.003 19.0043 41.4217 18.9818 41.7553 19.1506ZM4.22326 21.0388C3.59419 21.3874 3.61484 22.3802 4.25723 22.6729C4.60791 22.8327 13.1104 22.8327 13.4611 22.6729C13.7301 22.5503 13.9747 22.1567 13.9747 21.8464C13.9747 21.5361 13.7301 21.1425 13.4611 21.0199C13.0877 20.8498 4.53272 20.8672 4.22326 21.0388ZM18.2088 21.0388C17.5798 21.3874 17.6004 22.3802 18.2428 22.6729C18.5947 22.8333 28.5966 22.8333 28.9485 22.6729C29.2175 22.5503 29.4621 22.1567 29.4621 21.8464C29.4621 21.5361 29.2175 21.1425 28.9485 21.0199C28.5737 20.8492 18.5191 20.8669 18.2088 21.0388ZM34.6258 28.4623L30.2135 32.8746L29.3924 32.0534L28.5714 31.2324L32.9814 26.8217L37.3912 22.4111L38.2146 23.2306L39.038 24.0501L34.6258 28.4623ZM4.22326 24.7933C3.40956 25.2443 3.75 26.5396 4.68225 26.5396C5.15785 26.5396 5.62088 26.081 5.62088 25.61C5.62088 24.9053 4.84209 24.4503 4.22326 24.7933ZM8.44709 24.7933C7.81802 25.1419 7.83867 26.1347 8.48107 26.4274C8.66617 26.5118 10.8569 26.5396 17.3159 26.5396C24.5658 26.5396 25.9449 26.5187 26.1633 26.4058C26.7879 26.0827 26.7879 25.1191 26.1633 24.7961C25.7921 24.6041 8.79316 24.6015 8.44709 24.7933ZM4.22326 28.5478C3.59419 28.8965 3.61484 29.8892 4.25723 30.1819C4.43679 30.2638 5.68198 30.2941 8.85915 30.2941C13.5374 30.2941 13.5941 30.2885 13.8409 29.8112C14.0922 29.3252 13.918 28.7372 13.4611 28.529C13.0877 28.3588 4.53272 28.3763 4.22326 28.5478ZM4.22326 32.3024C3.59419 32.651 3.61484 33.6438 4.25723 33.9364C4.44177 34.0205 6.45175 34.0486 12.2851 34.0486C18.1185 34.0486 20.1285 34.0205 20.3131 33.9364C20.5821 33.8138 20.8267 33.4203 20.8267 33.11C20.8267 32.7997 20.5821 32.4061 20.3131 32.2835C19.9355 32.1115 4.53507 32.1295 4.22326 32.3024ZM28.6876 34.3874C28.5051 34.5621 26.1931 35.4103 26.1143 35.3314C26.0394 35.2564 26.8821 32.9431 27.0528 32.7553L27.2472 32.5413L28.0729 33.3633L28.8987 34.1853L28.6876 34.3874ZM4.22326 36.0569C3.59419 36.4055 3.61484 37.3983 4.25723 37.6909C4.61053 37.8519 17.1439 37.8519 17.4972 37.6909C17.7662 37.5684 18.0108 37.1748 18.0108 36.8645C18.0108 36.5542 17.7662 36.1606 17.4972 36.038C17.1209 35.8665 4.53441 35.8844 4.22326 36.0569Z" fill="#2D3748"/>
</svg>
