<svg width="48" height="48" viewBox="0 0 48 48" fill="none" xmlns="http://www.w3.org/2000/svg">
<path fill-rule="evenodd" clip-rule="evenodd" d="M6.417 0.230133C6.19128 0.45586 6.18687 0.489513 6.18687 2.00933V3.55857L5.92908 3.61538C4.56722 3.91563 3.78468 4.30662 3.02725 5.06526C2.10972 5.9842 1.5066 7.16946 1.22837 8.6004C1.09179 9.30261 1.05814 9.37348 0.860912 9.37376C0.602564 9.37414 0.278409 9.53471 0.120175 9.74085C0.0418082 9.84293 0.00506198 10.3544 0.00299969 11.3702C9.37406e-05 12.8193 0.00496824 12.8558 0.230133 13.081C0.373649 13.2246 0.567505 13.3111 0.745705 13.3111H1.03114V15.3734V17.4357H0.745705C0.567505 17.4357 0.373649 17.5222 0.230133 17.6659C0.00543693 17.8905 0 17.9305 0 19.3603V20.8248L0.274003 21.0988C0.435049 21.2599 0.647559 21.3728 0.789576 21.3728H1.03114V34.3621C1.03114 47.7779 1.02599 47.5894 1.39795 47.8749C1.61524 48.0417 46.3799 48.0417 46.5972 47.8749C46.9691 47.5894 46.964 47.7779 46.964 34.3621V21.3728H47.2055C47.3475 21.3728 47.5601 21.2599 47.7211 21.0988L47.9951 20.8248V19.3603C47.9951 17.9305 47.9897 17.8905 47.765 17.6659C47.6215 17.5222 47.4276 17.4357 47.2494 17.4357H46.964V15.3734V13.3111H47.2494C47.4276 13.3111 47.6215 13.2246 47.765 13.081C47.9901 12.8558 47.995 12.8193 47.9921 11.3702C47.99 10.3544 47.9533 9.84293 47.8749 9.74085C47.716 9.53397 47.3922 9.37404 47.1319 9.37404C46.9322 9.37404 46.898 9.30364 46.7515 8.59197C46.2166 5.99339 44.5962 4.15073 42.4644 3.7169L41.8551 3.59298L41.8082 1.97539C41.7631 0.415739 41.7535 0.351527 41.5401 0.17895C41.2574 -0.0495887 40.8592 -0.0495887 40.5766 0.17895C40.3631 0.351527 40.3536 0.415739 40.3084 1.97539L40.2615 3.59298L39.6522 3.7169C37.5213 4.15064 35.8729 6.04401 35.36 8.64718L35.2169 9.37404H34.8037C34.3662 9.37404 34.0547 9.496 33.8667 9.74085C33.7884 9.84293 33.7516 10.3544 33.7496 11.3702C33.7467 12.8193 33.7515 12.8558 33.9767 13.081C34.1202 13.2246 34.3141 13.3111 34.4923 13.3111H34.7777V14.0641V14.8169L34.2856 14.4551C32.0959 12.8458 29.2077 11.8977 25.7744 11.6613L24.8412 11.597V10.1313V8.66565L25.5066 8.56084C26.4164 8.41761 27.453 7.89098 28.1399 7.22298C28.7733 6.60701 28.8543 6.25436 28.4544 5.85456C28.0883 5.48841 27.7677 5.5499 27.129 6.10897C26.2784 6.85355 25.7241 7.07328 24.7006 7.07187C23.6093 7.07028 22.9813 6.83302 22.232 6.13934C21.4649 5.42916 21.1631 4.78057 21.1101 3.72796C21.0609 2.75372 21.2158 2.17 21.7208 1.4256C22.2765 0.606407 22.1055 0 21.3187 0C20.9684 0 20.8791 0.0463078 20.5996 0.372899C19.6568 1.47426 19.2551 3.34035 19.6415 4.8237C19.9991 6.19624 21.0547 7.48602 22.3102 8.08436C22.6969 8.26866 23.0882 8.44348 23.1797 8.47282C23.3314 8.52157 23.3438 8.66021 23.3203 10.0516L23.2945 11.5769L22.2634 11.6485C20.4501 11.7743 18.2369 12.2547 16.7795 12.8388C15.9033 13.1901 14.6319 13.8817 13.9084 14.4008L13.2174 14.8966V14.1038V13.3111H13.5028C13.681 13.3111 13.8749 13.2246 14.0184 13.081C14.2436 12.8558 14.2485 12.8193 14.2455 11.3702C14.2435 10.3544 14.2067 9.84293 14.1284 9.74085C13.9408 9.49656 13.6292 9.37404 13.1956 9.37404H12.7864L12.5747 8.43551C12.0067 5.91652 10.4016 4.1363 8.31543 3.71146L7.73359 3.59298L7.68531 2.05423C7.65878 1.20794 7.60366 0.447423 7.56298 0.364182C7.47636 0.187106 7.10206 0 6.83433 0C6.73131 0 6.54355 0.103583 6.417 0.230133ZM7.83351 5.16444C9.59808 5.48953 10.8347 6.90351 11.2078 9.02252L11.2698 9.37404H6.93895H2.60823L2.67207 8.97565C2.77369 8.34149 3.14387 7.34878 3.46605 6.84671C4.37693 5.4272 5.95683 4.81873 7.83351 5.16444ZM42.1645 5.204C42.8746 5.37142 43.2217 5.53978 43.7663 5.98111C44.5048 6.57945 45.155 7.82236 45.3329 8.97565L45.3944 9.37404H41.066H36.7377L36.8007 9.02252C36.9257 8.32396 37.2945 7.30332 37.5864 6.84858C38.5268 5.38314 40.2692 4.75714 42.1645 5.204ZM12.7487 11.3426V11.8113H7.12427H1.49985V11.3426V10.8739H7.12427H12.7487V11.3426ZM46.4953 11.3426V11.8113H40.8708H35.2464V11.3426V10.8739H40.8708H46.4953V11.3426ZM26.3789 13.2209C32.0767 13.7893 35.8752 16.644 37.251 21.3913C37.3753 21.8204 37.5073 22.4136 37.5443 22.7096L37.6115 23.2476H24.047H10.4824L10.5457 22.8492C11.6377 15.9739 17.6045 12.3454 26.3789 13.2209ZM11.7176 14.8181V16.3251L11.2903 16.8804L10.8629 17.4357H6.69701H2.53099V15.3734V13.3111H7.12427H11.7176V14.8181ZM45.4641 15.3734V17.4357H41.3161H37.1681L36.7228 16.8341L36.2776 16.2326V14.7718V13.3111H40.8708H45.4641V15.3734ZM9.81612 19.4043L9.61805 19.873H5.559H1.49985V19.4043V18.9356H5.75698H10.0141L9.81612 19.4043ZM46.4953 19.4043V19.873H42.461H38.4269L38.2427 19.4434C38.1415 19.207 38.0586 18.9961 38.0586 18.9747C38.0586 18.9532 39.9569 18.9356 42.2769 18.9356H46.4953V19.4043ZM45.4641 33.8872V46.4953H43.6362H41.8082V37.8711C41.8082 30.155 41.8235 29.247 41.9531 29.247C42.0327 29.247 42.2015 29.1434 42.328 29.0169L42.5582 28.7868V26.2473V23.7078L42.328 23.4778C42.1035 23.2532 42.0628 23.2476 40.6426 23.2476C39.2072 23.2476 39.1865 23.2447 39.1481 23.0367C39.0789 22.663 38.9023 21.466 38.9023 21.371C38.9023 21.3126 40.0998 21.2791 42.1832 21.2791H45.4641V33.8872ZM9.02027 22.0993C8.94912 22.4988 8.87225 22.9207 8.84947 23.0367C8.8086 23.2446 8.78714 23.2476 7.35253 23.2476C5.93227 23.2476 5.89159 23.2532 5.66708 23.4778L5.43695 23.7078V26.2473V28.7868L5.66708 29.0169C5.79363 29.1434 5.96236 29.247 6.04204 29.247C6.17159 29.247 6.18687 30.155 6.18687 37.8711V46.4953H4.35893H2.53099V33.934V21.3728H5.84031H9.14972L9.02027 22.0993ZM41.0583 26.2473V27.7472H23.9976H6.93679V26.2473V24.7475H23.9976H41.0583V26.2473ZM40.3084 37.8711V46.4953H39.0979H37.8875L37.8504 43.6127C37.8141 40.7886 37.8083 40.715 37.5635 39.9803C37.2432 39.0194 36.7403 38.173 36.0901 37.5C35.4522 36.8399 34.6273 36.2775 34.2971 36.2775C33.9395 36.2775 32.7635 37.1534 32.2203 37.8243C31.9698 38.1336 31.6019 38.7242 31.4027 39.1366C30.8314 40.3194 30.7469 40.9354 30.7469 43.9135V46.4953H29.9032H29.0595V42.4298C29.0595 38.0642 29.0115 37.4591 28.5605 36.1369C27.9163 34.2487 26.5214 32.4358 24.9128 31.3961C24.1604 30.9098 23.9251 30.9181 23.1172 31.46C21.5415 32.5172 20.1604 34.3262 19.5465 36.1369C19.1152 37.409 19.0963 37.6393 19.0546 42.1598L19.0146 46.4953H17.9969H16.9791L16.9483 43.5659L16.9174 40.6365L16.6454 39.8536C16.3386 38.9703 15.8568 38.1729 15.2162 37.4881C14.7158 36.953 13.7492 36.2775 13.4842 36.2775C13.1201 36.2775 12.496 36.6968 11.7553 37.4388C11.1578 38.0373 10.9136 38.3688 10.608 38.996C9.94942 40.3471 9.9138 40.5736 9.86637 43.7065L9.82419 46.4953H8.75545H7.68672V37.8711V29.247H23.9976H40.3084V37.8711ZM25.1095 33.5035C25.9071 34.2719 26.4258 34.9945 26.8569 35.938C27.4954 37.3353 27.4992 37.3708 27.5364 42.1598L27.57 46.4953H24.0496H20.5292V42.6586C20.5292 38.5026 20.5844 37.778 20.992 36.5842C21.4651 35.1986 22.5098 33.751 23.6199 32.9425C24.1291 32.5718 24.151 32.5801 25.1095 33.5035ZM14.1206 38.5545C14.423 38.8788 14.785 39.3565 14.9251 39.6161C15.4114 40.5172 15.4672 40.9521 15.4672 43.8433V46.4953H13.3964H11.3257L11.3607 43.7533C11.3947 41.0898 11.4026 40.9924 11.6362 40.3457C11.7684 39.9795 12.0351 39.4412 12.2288 39.1494C12.5888 38.607 13.2551 37.9649 13.4578 37.9649C13.52 37.9649 13.8183 38.2303 14.1206 38.5545ZM34.9609 38.5039C35.2472 38.8004 35.6172 39.2999 35.7834 39.614C36.301 40.593 36.3684 41.0899 36.3699 43.9408L36.3713 46.4953H34.309H32.2467V43.977C32.2467 42.5921 32.2896 41.2316 32.3419 40.9539C32.4891 40.1727 32.9988 39.1994 33.6014 38.5485C33.8985 38.2275 34.2089 37.9649 34.2911 37.9649C34.3732 37.9649 34.6746 38.2074 34.9609 38.5039Z" fill="#2D3748"/>
</svg>
