<svg width="48" height="48" viewBox="0 0 48 48" fill="none" xmlns="http://www.w3.org/2000/svg">
<path fill-rule="evenodd" clip-rule="evenodd" d="M15.994 0.83956C12.4657 1.21167 9.21341 2.55826 6.51919 4.76256C5.53382 5.56887 3.97054 7.23307 3.24931 8.24377C2.42481 9.3992 1.32951 11.5827 0.8954 12.9362C-0.53674 17.4026 -0.244834 22.0363 1.72741 26.1413C3.14182 29.0854 5.32061 31.5755 8.05704 33.3755C11.2333 35.4648 15.3221 36.5179 19.0572 36.2086C22.657 35.9104 25.652 34.7619 28.7424 32.4945C28.828 32.4317 29.4673 32.9945 31.0284 34.5074C32.2202 35.6624 33.1955 36.6357 33.1955 36.6702C33.1955 36.7047 33.1322 36.8844 33.0548 37.0697C32.8708 37.5099 32.8754 38.3438 33.0643 38.816C33.1786 39.1016 34.1474 40.0966 37.1076 42.9686C39.2487 45.0459 41.1533 46.8393 41.34 46.9539C41.7913 47.231 42.3655 47.3067 42.9709 47.1688C43.447 47.0603 43.5483 46.9736 45.532 44.9778C46.7797 43.7224 47.6683 42.7511 47.7764 42.5245C48.056 41.9387 48.074 41.2875 47.8267 40.7125C47.6466 40.2939 47.0709 39.6954 43.7269 36.4505C41.5619 34.3497 39.6639 32.5838 39.4473 32.4687C38.9406 32.1996 38.0915 32.1853 37.5377 32.4367L37.1429 32.6159L35.052 30.5946C33.9019 29.483 32.8852 28.5014 32.7926 28.4133C32.6313 28.2599 32.6408 28.2258 33.0199 27.6035C35.8247 22.9975 36.2864 16.9961 34.232 11.8459C33.1977 9.25306 31.2273 6.57797 29.0214 4.77166C25.4319 1.83253 20.5501 0.359022 15.994 0.83956ZM19.4538 2.14554C25.6947 2.84191 30.814 6.75619 33.1297 12.6023C34.2535 15.4395 34.5166 18.8843 33.8462 21.9823C32.3427 28.9283 26.5857 34.0948 19.4809 34.8737C14.975 35.3678 10.3185 33.877 6.83764 30.826C4.21123 28.5239 2.36816 25.3262 1.61081 21.7574C1.38513 20.6938 1.35971 20.3778 1.35746 18.6055C1.35465 16.3841 1.47199 15.5142 2.02156 13.681C2.38054 12.4839 3.21151 10.6777 3.88594 9.62891C4.84223 8.14181 6.23929 6.60377 7.54264 5.60329C10.2111 3.55489 12.821 2.50967 16.2645 2.11046C16.8928 2.03767 18.6613 2.05709 19.4538 2.14554ZM15.7053 5.28775C12.7276 5.77251 10.2174 7.09209 8.10084 9.28542C6.35823 11.0914 5.22868 13.2149 4.66513 15.7446C4.3736 17.0535 4.348 19.8364 4.61608 21.0912C5.19904 23.8205 6.37267 25.9846 8.33262 27.9444C10.2954 29.9073 12.3118 31.0064 15.0749 31.6197C16.3026 31.8922 19.0335 31.914 20.2829 31.6614C24.3811 30.8328 27.8491 28.1994 29.7055 24.5064C30.2013 23.52 30.6162 22.3232 30.867 21.1557C31.164 19.773 31.1651 17.2312 30.8691 15.8677C29.7111 10.532 25.8092 6.60433 20.4856 5.4156C19.3494 5.16196 16.8835 5.09602 15.7053 5.28775ZM20.756 6.81904C23.4358 7.51466 25.8326 9.13027 27.4787 11.3504C28.1616 12.2714 29.0786 14.1046 29.3483 15.088C30.5493 19.4666 29.3861 23.9728 26.255 27.0709C25.8771 27.445 25.5323 27.751 25.4889 27.751C25.4455 27.751 25.4101 26.3175 25.4101 24.5654C25.4101 21.5639 25.3987 21.3493 25.2141 20.8558C24.9499 20.1498 24.2453 19.441 23.3771 19.0079C22.7457 18.6929 21.2355 18.2758 20.2338 18.1397L19.7944 18.0799L20.2144 17.6417C21.105 16.7121 21.6282 15.1533 21.5401 13.6916C21.4001 11.3694 19.9969 10.061 17.6716 10.0843C15.9918 10.1012 14.8073 10.8775 14.2125 12.3513C13.9588 12.9799 13.9018 14.4711 14.0994 15.3119C14.2884 16.1166 14.8052 17.1139 15.3141 17.6557L15.7017 18.0685L14.7637 18.2299C13.5153 18.4446 12.541 18.7601 11.8559 19.171C11.0909 19.6301 10.727 20.0016 10.3984 20.6591L10.1206 21.2149V24.483C10.1206 26.2804 10.095 27.751 10.0638 27.751C9.89815 27.751 9.15975 27.0449 8.53326 26.2874C7.29248 24.7874 6.51525 23.2712 6.0242 21.3933C5.70322 20.1656 5.61908 18.007 5.8382 16.6231C6.55933 12.0705 9.75126 8.37068 14.1594 6.97822C15.4697 6.56428 16.2903 6.46288 18.0468 6.49786C19.4635 6.5261 19.7656 6.56193 20.756 6.81904ZM18.9018 11.569C19.7346 11.9168 20.1666 12.6135 20.2323 13.7147C20.3704 16.0264 18.8918 17.877 17.2675 17.4259C16.6439 17.2527 15.8524 16.4498 15.5632 15.697C15.2989 15.009 15.2073 13.7769 15.3674 13.062C15.5217 12.3725 16.078 11.7627 16.7805 11.5132C17.3842 11.2986 18.3133 11.3231 18.9018 11.569ZM18.9848 19.3141C20.3197 19.429 21.9468 19.7755 22.6383 20.092C23.2215 20.3591 23.8436 20.8936 23.9935 21.2564C24.0678 21.4362 24.0922 22.6105 24.0748 25.1715L24.05 28.8297L23.0651 29.3292L22.0802 29.8287L22.0333 26.5721L21.9864 23.3156L21.7382 23.1303C21.5399 22.9824 21.436 22.963 21.2223 23.0339C20.7368 23.1949 20.723 23.3021 20.7215 26.917L20.7201 30.2571L19.9931 30.3876C19.5711 30.4633 18.6366 30.5181 17.7654 30.5181C16.8941 30.5181 15.9596 30.4633 15.5376 30.3876L14.8106 30.2571V27.0014C14.8106 24.9405 14.774 23.6404 14.7108 23.4591C14.6487 23.2808 14.5046 23.1285 14.3295 23.056C14.0839 22.9543 14.0164 22.9633 13.7963 23.1275L13.5443 23.3156L13.4974 26.559L13.4505 29.8023L12.7939 29.5037C12.4328 29.3393 11.9557 29.1079 11.7336 28.9893L11.3299 28.7738L11.3584 25.1435C11.3899 21.135 11.3718 21.2589 12.0121 20.6558C12.8475 19.8688 14.7988 19.3657 17.5309 19.2331C17.7114 19.2243 18.3657 19.2608 18.9848 19.3141ZM34.0866 31.4554L36.244 33.5569L35.199 34.6061C34.2325 35.5767 34.1403 35.6456 33.9699 35.5255C33.8685 35.4541 32.8953 34.5268 31.8073 33.4648L29.8292 31.5341L30.4375 30.9322C30.772 30.6013 31.2229 30.1089 31.4395 29.8381C31.6561 29.5673 31.8549 29.3475 31.8812 29.3497C31.9076 29.352 32.9 30.2996 34.0866 31.4554ZM39.3394 34.0299C41.015 35.6033 46.4884 40.9568 46.5822 41.114C46.6448 41.2191 46.6975 41.4418 46.6994 41.6087C46.7023 41.8777 46.4859 42.1382 44.8114 43.8821C42.8254 45.9504 42.5959 46.1177 42.0758 45.8777C41.7598 45.7318 34.484 38.6397 34.2878 38.2862C34.1753 38.0836 34.1352 37.8876 34.1741 37.7323C34.2517 37.4235 37.7469 33.7692 38.12 33.607C38.5235 33.4315 38.8068 33.5298 39.3394 34.0299Z" fill="#2D3748"/>
</svg>
